<svg height="512" viewBox="0 0 64 64" width="512" xmlns="http://www.w3.org/2000/svg"><g id="Game_Controller-Computer-Gaming-Gamepad-Game" data-name="Game Controller-Computer-Gaming-Gamepad-Game"><path d="m11.414 56h41.172l-4-4h-33.172zm34.586-3h2v2h-2zm-4 0h2v2h-2zm-18 0h16v2h-16zm-4 0h2v2h-2zm-4 0h2v2h-2z"/><path d="m10 58h44v2h-44z"/><path d="m19 50h-2v-2a1 1 0 0 0 -1-1h-6a3 3 0 0 1 0-6h6a1 1 0 0 0 1-1v-2h2v2a3 3 0 0 1 -3 3h-6a1 1 0 0 0 0 2h6a3 3 0 0 1 3 3z"/><path d="m38 8h2v2h-2z"/><path d="m53 9v21h-42v-21a1 1 0 0 1 1-1h6.27a7.37 7.37 0 0 0 -.27 2v11a3.009 3.009 0 0 0 3 3h2.25a3.006 3.006 0 0 0 2.97-2.6l.72-5.4h10.12l.72 5.4a3.006 3.006 0 0 0 2.97 2.6h2.25a3.009 3.009 0 0 0 3-3v-11a7.37 7.37 0 0 0 -.27-2h6.27a1 1 0 0 1 1 1z"/><path d="m20 21a1 1 0 0 0 1 1h2.249a1 1 0 0 0 .991-.868l.72-5.4a2.006 2.006 0 0 1 1.982-1.732h10.116a2.006 2.006 0 0 1 1.982 1.735l.72 5.4a1 1 0 0 0 .991.868h2.249a1 1 0 0 0 1-1v-11.003a6.006 6.006 0 0 0 -6-6h-12a6.006 6.006 0 0 0 -6 6zm16-13h2v-2h2v2h2v2h-2v2h-2v-2h-2zm-3-2h2v2h-2zm-4 0h2v2h-2zm-7 2h2v-2h2v2h2v2h-2v2h-2v-2h-2z"/><path d="m28 38h8v4h-8z"/><path d="m23 44h18v2h-18z"/><path d="m11 35a1 1 0 0 0 1 1h40a1 1 0 0 0 1-1v-3h-42zm36-2h2v2h-2z"/></g></svg>